<svg width="20" height="20" viewBox="0 0 20 20" fill="none" xmlns="http://www.w3.org/2000/svg">
<g clip-path="url(#clip0_161_651)">
<path d="M14.7142 12.3567L13.5358 11.1784L14.7142 10C15.0237 9.69051 15.2693 9.32303 15.4368 8.91861C15.6043 8.51418 15.6905 8.08071 15.6905 7.64296C15.6905 7.20521 15.6043 6.77175 15.4368 6.36732C15.2693 5.96289 15.0237 5.59541 14.7142 5.28588C14.4046 4.97634 14.0372 4.7308 13.6327 4.56328C13.2283 4.39576 12.7948 4.30954 12.3571 4.30954C11.9193 4.30954 11.4859 4.39576 11.0815 4.56328C10.677 4.7308 10.3095 4.97634 10 5.28588L8.82168 6.46421L7.64334 5.28588L8.82168 4.10754C9.76194 3.18248 11.0296 2.66642 12.3487 2.67179C13.6677 2.67717 14.9311 3.20352 15.8638 4.13622C16.7965 5.06891 17.3229 6.33238 17.3283 7.65139C17.3336 8.97041 16.8176 10.2381 15.8925 11.1784L14.7142 12.3567ZM12.3567 14.7142L11.1783 15.8925C10.7154 16.363 10.164 16.7372 9.55573 16.9935C8.94749 17.2498 8.29453 17.3832 7.6345 17.3859C6.97447 17.3886 6.32043 17.2605 5.71013 17.0092C5.09982 16.7579 4.54532 16.3882 4.0786 15.9215C3.61189 15.4547 3.24219 14.9002 2.99085 14.2899C2.73951 13.6796 2.61149 13.0256 2.61418 12.3656C2.61686 11.7055 2.75021 11.0526 3.00651 10.4443C3.26282 9.83608 3.63701 9.28461 4.10751 8.82171L5.28584 7.64338L6.46418 8.82171L5.28584 10C4.97631 10.3096 4.73077 10.6771 4.56325 11.0815C4.39573 11.4859 4.30951 11.9194 4.30951 12.3571C4.30951 12.7949 4.39573 13.2283 4.56325 13.6328C4.73077 14.0372 4.97631 14.4047 5.28584 14.7142C5.59538 15.0237 5.96285 15.2693 6.36728 15.4368C6.77171 15.6043 7.20518 15.6905 7.64293 15.6905C8.08068 15.6905 8.51414 15.6043 8.91857 15.4368C9.323 15.2693 9.69047 15.0237 10 14.7142L11.1783 13.5359L12.3567 14.7142ZM12.3567 6.46421L13.5358 7.64338L7.64334 13.535L6.46418 12.3567L12.3567 6.46421Z" fill="#12121A"/>
</g>
<defs>
<clipPath id="clip0_161_651">
<rect width="20" height="20" fill="white"/>
</clipPath>
</defs>
</svg>
