<svg width="18" height="18" viewBox="0 0 18 18" fill="none" xmlns="http://www.w3.org/2000/svg">
<g clip-path="url(#clip0_161_671)">
<path d="M13.5 5.99988H15C15.1989 5.99988 15.3897 6.0789 15.5303 6.21955C15.671 6.3602 15.75 6.55097 15.75 6.74988V15.7499C15.75 15.9488 15.671 16.1396 15.5303 16.2802C15.3897 16.4209 15.1989 16.4999 15 16.4999H3C2.80109 16.4999 2.61032 16.4209 2.46967 16.2802C2.32902 16.1396 2.25 15.9488 2.25 15.7499V6.74988C2.25 6.55097 2.32902 6.3602 2.46967 6.21955C2.61032 6.0789 2.80109 5.99988 3 5.99988H4.5V5.24988C4.5 4.0564 4.97411 2.91181 5.81802 2.0679C6.66193 1.22398 7.80653 0.749878 9 0.749878C10.1935 0.749878 11.3381 1.22398 12.182 2.0679C13.0259 2.91181 13.5 4.0564 13.5 5.24988V5.99988ZM8.25 11.7989V13.4999H9.75V11.7989C10.036 11.6338 10.2595 11.3789 10.3858 11.0739C10.5122 10.7688 10.5344 10.4306 10.4489 10.1116C10.3634 9.79266 10.1751 9.51082 9.91314 9.30981C9.65118 9.1088 9.3302 8.99984 9 8.99984C8.6698 8.99984 8.34882 9.1088 8.08686 9.30981C7.82489 9.51082 7.63657 9.79266 7.55111 10.1116C7.46565 10.4306 7.48782 10.7688 7.61418 11.0739C7.74054 11.3789 7.96404 11.6338 8.25 11.7989ZM12 5.99988V5.24988C12 4.45423 11.6839 3.69117 11.1213 3.12856C10.5587 2.56595 9.79565 2.24988 9 2.24988C8.20435 2.24988 7.44129 2.56595 6.87868 3.12856C6.31607 3.69117 6 4.45423 6 5.24988V5.99988H12Z" fill="#4B5563"/>
</g>
<defs>
<clipPath id="clip0_161_671">
<rect width="18" height="18" fill="white"/>
</clipPath>
</defs>
</svg>
