<svg width="89" height="29" viewBox="0 0 89 29" fill="none" xmlns="http://www.w3.org/2000/svg">
<path d="M7.29605 4.07289H13.4884L6.19238 24.1186H0L7.29605 4.07289Z" fill="#7C3AED"/>
<path d="M17.2637 12.0586H21.1751L16.7856 24.1186H12.8742L17.2637 12.0586Z" fill="#7C3AED"/>
<path d="M6.66659 12.0584L5.32883 15.7339L19.8333 15.7341L21.1711 12.0586L6.66659 12.0584Z" fill="#7C3AED"/>
<path d="M3.58417 20.5332L2.27924 24.1185L9.56928 24.1186L10.8742 20.5334L3.58417 20.5332Z" fill="#7C3AED"/>
<path d="M14.1792 20.5332L12.8742 24.1186L20.0589 24.1186L21.3638 20.5334L14.1792 20.5332Z" fill="#7C3AED"/>
<path d="M30.695 4H36.8874L29.5914 24.0457H23.399L30.695 4Z" fill="#7C3AED"/>
<path d="M40.6627 11.9857H44.5741L40.1846 24.0457H36.2732L40.6627 11.9857Z" fill="#7C3AED"/>
<path d="M30.0656 11.9855L28.7278 15.661L43.2323 15.6612L44.5701 11.9857L30.0656 11.9855Z" fill="#7C3AED"/>
<path d="M26.9832 20.4603L25.6782 24.0456L32.9683 24.0457L34.2732 20.4605L26.9832 20.4603Z" fill="#7C3AED"/>
<path d="M37.5782 20.4603L36.2732 24.0457L43.4579 24.0457L44.7628 20.4605L37.5782 20.4603Z" fill="#7C3AED"/>
<path d="M56.6269 13.0004H60.0361V24.4222H56.6076L56.2995 23.4976C55.7601 23.9471 55.1502 24.2809 54.4697 24.4992C53.8019 24.7175 53.1085 24.8202 52.3895 24.8074C51.4906 24.7945 50.6688 24.634 49.9241 24.3259C49.1793 24.0177 48.5373 23.5939 47.9979 23.0546C47.4586 22.5153 47.0413 21.8797 46.746 21.1478C46.4506 20.4159 46.303 19.6133 46.303 18.7402C46.303 17.8413 46.4571 17.0195 46.7652 16.2747C47.0863 15.5171 47.5164 14.8687 48.0557 14.3294C48.6079 13.7901 49.2499 13.3727 49.9818 13.0774C50.7266 12.7692 51.5227 12.6151 52.3702 12.6151C53.115 12.6151 53.8148 12.7115 54.4697 12.9041C55.1245 13.0967 55.728 13.3984 56.2802 13.8093L56.6269 13.0004ZM52.9866 21.4945C53.7955 21.4945 54.444 21.2377 54.9319 20.724C55.4199 20.2104 55.6638 19.5491 55.6638 18.7402C55.6638 17.8927 55.4199 17.2185 54.9319 16.7178C54.444 16.2041 53.7955 15.9473 52.9866 15.9473C52.1776 15.9473 51.5291 16.2041 51.0412 16.7178C50.5532 17.2185 50.3093 17.8927 50.3093 18.7402C50.3093 19.5491 50.5532 20.2104 51.0412 20.724C51.5291 21.2377 52.1776 21.4945 52.9866 21.4945Z" fill="#7C3AED"/>
<path d="M68.7898 15.7354C67.9038 15.7354 67.2104 16.0115 66.7096 16.5637C66.2088 17.1158 65.9584 17.8349 65.9584 18.7209C65.9584 19.1446 66.0226 19.5363 66.151 19.8958C66.2794 20.2554 66.4656 20.57 66.7096 20.8396C66.9536 21.0964 67.2489 21.3019 67.5956 21.456C67.9423 21.6101 68.3404 21.6871 68.7898 21.6871C69.4061 21.6871 69.9583 21.5523 70.4462 21.2826C70.9342 21.0001 71.3451 20.5828 71.6789 20.0307L74.2792 22.2071C73.9453 22.6309 73.5858 23.0097 73.2006 23.3436C72.8153 23.6903 72.398 23.9856 71.9486 24.2296C71.4992 24.4735 71.0048 24.6597 70.4655 24.7881C69.9262 24.9294 69.3355 25 68.6935 25C67.7433 25 66.8573 24.8523 66.0355 24.557C65.2137 24.2617 64.501 23.8379 63.8975 23.2858C63.294 22.7465 62.8189 22.0916 62.4722 21.3211C62.1383 20.5507 61.9714 19.684 61.9714 18.7209C61.9714 17.7578 62.1447 16.8911 62.4914 16.1207C62.8381 15.3502 63.3132 14.6889 63.9167 14.1368C64.5203 13.5846 65.2265 13.1609 66.0355 12.8655C66.8573 12.5702 67.7433 12.4225 68.6935 12.4225C69.9005 12.4225 70.9599 12.6729 71.8716 13.1737C72.7961 13.6617 73.6051 14.3486 74.2985 15.2347L71.6789 17.3919C71.3708 16.8654 70.9727 16.4609 70.4848 16.1784C69.9968 15.8831 69.4318 15.7354 68.7898 15.7354Z" fill="#7C3AED"/>
<path d="M83.654 24.4222L80.2256 20.5507V24.4222H76.2193V9.07112H80.2256V16.3133L83.654 13.0004H88.45L82.9992 18.2394L88.5849 24.4222H83.654Z" fill="#7C3AED"/>
</svg>
