<svg width="16" height="16" viewBox="0 0 16 16" fill="none" xmlns="http://www.w3.org/2000/svg">
<g clip-path="url(#clip0_152_7020)">
<path d="M7.99998 7.33331C8.88403 7.33331 9.73188 7.6845 10.357 8.30962C10.9821 8.93474 11.3333 9.78259 11.3333 10.6666V14.6666H4.66665V10.6666C4.66665 9.78259 5.01784 8.93474 5.64296 8.30962C6.26808 7.6845 7.11592 7.33331 7.99998 7.33331ZM3.52531 9.33731C3.41922 9.69517 3.35655 10.0645 3.33865 10.4373L3.33331 10.6666V14.6666H1.33331V11.6666C1.33318 11.0917 1.54533 10.5369 1.92907 10.1088C2.31281 9.68063 2.84111 9.40923 3.41265 9.34665L3.52531 9.33731ZM12.4746 9.33731C13.0679 9.37347 13.625 9.63462 14.0324 10.0675C14.4397 10.5003 14.6666 11.0723 14.6666 11.6666V14.6666H12.6666V10.6666C12.6666 10.2046 12.6 9.75865 12.4746 9.33731ZM3.66665 5.33331C4.10867 5.33331 4.5326 5.50891 4.84516 5.82147C5.15772 6.13403 5.33331 6.55795 5.33331 6.99998C5.33331 7.44201 5.15772 7.86593 4.84516 8.17849C4.5326 8.49105 4.10867 8.66665 3.66665 8.66665C3.22462 8.66665 2.8007 8.49105 2.48814 8.17849C2.17557 7.86593 1.99998 7.44201 1.99998 6.99998C1.99998 6.55795 2.17557 6.13403 2.48814 5.82147C2.8007 5.50891 3.22462 5.33331 3.66665 5.33331ZM12.3333 5.33331C12.7753 5.33331 13.1993 5.50891 13.5118 5.82147C13.8244 6.13403 14 6.55795 14 6.99998C14 7.44201 13.8244 7.86593 13.5118 8.17849C13.1993 8.49105 12.7753 8.66665 12.3333 8.66665C11.8913 8.66665 11.4674 8.49105 11.1548 8.17849C10.8422 7.86593 10.6666 7.44201 10.6666 6.99998C10.6666 6.55795 10.8422 6.13403 11.1548 5.82147C11.4674 5.50891 11.8913 5.33331 12.3333 5.33331ZM7.99998 1.33331C8.70722 1.33331 9.3855 1.61426 9.8856 2.11436C10.3857 2.61446 10.6666 3.29274 10.6666 3.99998C10.6666 4.70722 10.3857 5.3855 9.8856 5.8856C9.3855 6.38569 8.70722 6.66665 7.99998 6.66665C7.29274 6.66665 6.61446 6.38569 6.11436 5.8856C5.61426 5.3855 5.33331 4.70722 5.33331 3.99998C5.33331 3.29274 5.61426 2.61446 6.11436 2.11436C6.61446 1.61426 7.29274 1.33331 7.99998 1.33331Z" fill="#4B5563"/>
</g>
<defs>
<clipPath id="clip0_152_7020">
<rect width="16" height="16" fill="white"/>
</clipPath>
</defs>
</svg>
