<svg width="18" height="18" viewBox="0 0 18 18" fill="none" xmlns="http://www.w3.org/2000/svg">
<g clip-path="url(#clip0_161_661)">
<path d="M9 16.5001C4.85775 16.5001 1.5 13.1424 1.5 9.00012C1.5 4.85787 4.85775 1.50012 9 1.50012C13.1422 1.50012 16.5 4.85787 16.5 9.00012C16.5 13.1424 13.1422 16.5001 9 16.5001ZM7.2825 14.7504C6.54256 13.1809 6.1139 11.4828 6.02025 9.75012H3.0465C3.19244 10.9043 3.67044 11.9912 4.42243 12.8789C5.17441 13.7666 6.16801 14.4167 7.2825 14.7504ZM7.5225 9.75012C7.63575 11.5794 8.1585 13.2976 9 14.8141C9.86424 13.2575 10.3691 11.5272 10.4775 9.75012H7.5225ZM14.9535 9.75012H11.9797C11.8861 11.4828 11.4574 13.1809 10.7175 14.7504C11.832 14.4167 12.8256 13.7666 13.5776 12.8789C14.3296 11.9912 14.8076 10.9043 14.9535 9.75012ZM3.0465 8.25012H6.02025C6.1139 6.51746 6.54256 4.81939 7.2825 3.24987C6.16801 3.58353 5.17441 4.23369 4.42243 5.12134C3.67044 6.009 3.19244 7.09595 3.0465 8.25012ZM7.52325 8.25012H10.4767C10.3686 6.47307 9.86398 4.74277 9 3.18612C8.13576 4.74271 7.63092 6.47301 7.5225 8.25012H7.52325ZM10.7175 3.24987C11.4574 4.81939 11.8861 6.51746 11.9797 8.25012H14.9535C14.8076 7.09595 14.3296 6.009 13.5776 5.12134C12.8256 4.23369 11.832 3.58353 10.7175 3.24987Z" fill="#4B5563"/>
</g>
<defs>
<clipPath id="clip0_161_661">
<rect width="18" height="18" fill="white"/>
</clipPath>
</defs>
</svg>
