<svg width="20" height="20" viewBox="0 0 20 20" fill="none" xmlns="http://www.w3.org/2000/svg">
<g clip-path="url(#clip0_152_7149)">
<path d="M12.6667 5.83333C12.6667 5.61232 12.7545 5.40036 12.9107 5.24408C13.067 5.0878 13.279 5 13.5 5C13.721 5 13.933 5.0878 14.0893 5.24408C14.2455 5.40036 14.3333 5.61232 14.3333 5.83333V14.1667C14.3333 14.3877 14.2455 14.5996 14.0893 14.7559C13.933 14.9122 13.721 15 13.5 15C13.279 15 13.067 14.9122 12.9107 14.7559C12.7545 14.5996 12.6667 14.3877 12.6667 14.1667V5.83333ZM6 5.83333C6 5.61232 6.0878 5.40036 6.24408 5.24408C6.40036 5.0878 6.61232 5 6.83333 5C7.05435 5 7.26631 5.0878 7.42259 5.24408C7.57887 5.40036 7.66667 5.61232 7.66667 5.83333V14.1667C7.66667 14.3877 7.57887 14.5996 7.42259 14.7559C7.26631 14.9122 7.05435 15 6.83333 15C6.61232 15 6.40036 14.9122 6.24408 14.7559C6.0878 14.5996 6 14.3877 6 14.1667V5.83333Z" fill="#F0F2F5"/>
</g>
<defs>
<clipPath id="clip0_152_7149">
<rect width="20" height="20" fill="white"/>
</clipPath>
</defs>
</svg>
