<svg width="16" height="16" viewBox="0 0 16 16" fill="none" xmlns="http://www.w3.org/2000/svg">
<path d="M13.3334 14.6667H2.66669V13.3334C2.66669 12.4493 3.01788 11.6015 3.643 10.9763C4.26812 10.3512 5.11597 10 6.00002 10H10C10.8841 10 11.7319 10.3512 12.357 10.9763C12.9822 11.6015 13.3334 12.4493 13.3334 13.3334V14.6667ZM8.00002 8.66669C7.47473 8.66669 6.95459 8.56322 6.46929 8.36221C5.98398 8.16119 5.54303 7.86655 5.17159 7.49511C4.80016 7.12368 4.50552 6.68272 4.3045 6.19742C4.10348 5.71212 4.00002 5.19197 4.00002 4.66669C4.00002 4.1414 4.10348 3.62126 4.3045 3.13595C4.50552 2.65065 4.80016 2.20969 5.17159 1.83826C5.54303 1.46683 5.98398 1.17219 6.46929 0.971169C6.95459 0.77015 7.47473 0.666687 8.00002 0.666687C9.06089 0.666687 10.0783 1.08811 10.8284 1.83826C11.5786 2.58841 12 3.60582 12 4.66669C12 5.72755 11.5786 6.74497 10.8284 7.49511C10.0783 8.24526 9.06089 8.66669 8.00002 8.66669Z" fill="#4B5563"/>
</svg>
