<svg width="20" height="20" viewBox="0 0 20 20" fill="none" xmlns="http://www.w3.org/2000/svg">
<g clip-path="url(#clip0_158_637)">
<path d="M15.4475 16.3058C13.9354 17.6161 12.0008 18.3361 9.99999 18.3333C5.39749 18.3333 1.66666 14.6025 1.66666 9.99996C1.66666 5.39746 5.39749 1.66663 9.99999 1.66663C14.6025 1.66663 18.3333 5.39746 18.3333 9.99996C18.3333 11.78 17.775 13.43 16.825 14.7833L14.1667 9.99996H16.6667C16.6665 8.46347 16.1357 6.97418 15.1639 5.78403C14.1921 4.59389 12.839 3.77595 11.3336 3.46859C9.82816 3.16123 8.26277 3.38331 6.90222 4.09726C5.54168 4.81122 4.46951 5.97322 3.86709 7.38669C3.26468 8.80017 3.16899 10.3783 3.59623 11.8542C4.02347 13.3301 4.9474 14.6132 6.21172 15.4863C7.47605 16.3594 9.00315 16.7689 10.5347 16.6457C12.0662 16.5225 13.5082 15.874 14.6167 14.81L15.4475 16.3058Z" fill="#4B5563"/>
</g>
<defs>
<clipPath id="clip0_158_637">
<rect width="20" height="20" fill="white"/>
</clipPath>
</defs>
</svg>
