<svg width="20" height="20" viewBox="0 0 20 20" fill="none" xmlns="http://www.w3.org/2000/svg">
<g clip-path="url(#clip0_152_7145)">
<path d="M16.48 10.6515L7.6475 16.5398C7.58475 16.5815 7.51186 16.6055 7.43658 16.6091C7.36129 16.6127 7.28644 16.5958 7.22 16.5602C7.15355 16.5247 7.098 16.4717 7.05926 16.4071C7.02052 16.3424 7.00004 16.2685 7 16.1931V4.41645C7.00004 4.34108 7.02052 4.26714 7.05926 4.20249C7.098 4.13784 7.15355 4.08491 7.22 4.04933C7.28644 4.01376 7.36129 3.99687 7.43658 4.00048C7.51186 4.00408 7.58475 4.02803 7.6475 4.06979L16.48 9.95812C16.5371 9.99617 16.5839 10.0477 16.6162 10.1082C16.6486 10.1687 16.6655 10.2362 16.6655 10.3048C16.6655 10.3734 16.6486 10.4409 16.6162 10.5014C16.5839 10.5619 16.5371 10.6134 16.48 10.6515Z" fill="#F0F2F5"/>
</g>
<defs>
<clipPath id="clip0_152_7145">
<rect width="20" height="20" fill="white"/>
</clipPath>
</defs>
</svg>
